<?xml version="1.0" standalone="no"?>
<!DOCTYPE svg PUBLIC "-//W3C//DTD SVG 20010904//EN"
 "http://www.w3.org/TR/2001/REC-SVG-20010904/DTD/svg10.dtd">
<svg version="1.0" xmlns="http://www.w3.org/2000/svg"
 width="808.000000pt" height="808.000000pt" viewBox="0 0 808.000000 808.000000"
 preserveAspectRatio="xMidYMid meet">
<metadata>
Created by potrace 1.11, written by Peter Selinger 2001-2013
</metadata>
<g transform="translate(0.000000,808.000000) scale(0.100000,-0.100000)"
fill="#000000" stroke="none">
<path d="M769 8056 c-2 -2 -28 -7 -57 -11 -69 -9 -181 -47 -251 -86 -214 -121
-355 -314 -407 -559 -11 -55 -14 -592 -14 -3340 0 -3572 -3 -3331 55 -3486 13
-34 20 -66 17 -70 -4 -4 -2 -4 4 -1 11 6 42 -49 36 -65 -1 -5 3 -8 9 -8 5 0 7
-5 3 -12 -4 -7 -3 -8 4 -4 6 4 16 -4 23 -16 7 -12 18 -29 26 -36 7 -8 10 -18
7 -24 -4 -6 -3 -8 2 -5 6 3 29 -14 52 -39 24 -24 48 -44 54 -44 5 0 8 -7 5
-14 -4 -9 -1 -13 7 -10 7 3 21 -4 31 -16 10 -11 24 -20 32 -20 7 0 16 -7 19
-15 4 -8 10 -12 15 -9 5 3 9 0 9 -6 0 -6 4 -8 10 -5 6 3 10 1 10 -4 0 -6 6
-10 12 -9 7 2 12 -2 11 -8 -1 -7 6 -10 17 -7 11 3 20 0 20 -6 0 -6 6 -10 12
-9 7 2 12 -2 11 -8 -1 -6 4 -11 12 -11 8 0 12 4 9 9 -3 4 0 8 5 8 6 0 11 -5
11 -12 0 -6 3 -8 7 -5 3 4 14 0 24 -9 11 -10 19 -12 24 -4 3 5 12 7 18 3 12
-8 19 -10 49 -16 10 -2 21 -6 24 -10 4 -4 13 -2 21 4 8 7 13 8 13 1 0 -6 19
-8 47 -6 31 3 49 0 55 -8 4 -7 8 -8 8 -3 0 15 70 18 70 2 0 -9 2 -9 8 1 9 13
89 11 112 -3 9 -6 11 -4 5 4 -11 19 65 11 90 -8 18 -15 19 -15 6 1 -12 16 -8
17 51 15 34 -1 66 -6 70 -12 5 -7 8 -7 8 1 0 16 84 11 106 -6 17 -14 18 -14 6
2 -13 16 -9 17 55 15 37 -2 74 -7 82 -11 9 -6 12 -5 7 2 -4 7 12 11 54 10 37
0 60 -5 60 -12 0 -7 3 -7 8 -1 11 16 72 19 72 3 0 -8 3 -9 8 -3 11 16 64 18
73 3 6 -9 9 -9 9 -1 0 13 18 12 39 -1 10 -6 12 -5 7 2 -4 7 -1 12 9 12 10 0
13 -5 9 -12 -5 -8 0 -7 11 2 22 18 18 19 46 -5 16 -14 20 -15 10 -3 -12 16 -8
17 56 15 37 -2 74 -7 82 -11 10 -7 12 -5 6 3 -11 19 65 11 90 -8 18 -15 19
-15 6 1 -12 16 -10 17 22 15 19 -2 44 -10 54 -18 16 -13 17 -12 5 3 -13 16 -9
17 55 15 37 -2 74 -7 82 -11 10 -7 12 -5 6 3 -11 19 65 11 90 -8 18 -15 19
-15 6 1 -12 16 -10 17 22 15 19 -2 44 -10 54 -18 16 -13 17 -12 5 3 -13 16 -9
17 55 15 37 -2 74 -7 82 -11 10 -7 12 -5 6 3 -11 19 65 11 90 -8 18 -15 19
-15 6 1 -12 16 -10 17 22 15 19 -2 44 -10 54 -18 16 -13 17 -12 5 3 -13 16 -9
17 55 15 37 -2 74 -7 82 -11 10 -7 12 -5 6 3 -11 19 65 11 90 -8 18 -15 19
-15 7 0 -10 14 -6 16 41 16 28 0 55 -5 59 -11 5 -6 8 -7 8 -1 0 15 70 18 70 2
0 -7 3 -8 8 -2 11 16 64 18 73 3 5 -7 9 -8 9 -3 0 15 70 18 70 2 0 -9 2 -9 8
1 9 13 89 11 112 -3 9 -6 11 -4 5 4 -11 19 65 11 90 -8 18 -15 19 -15 6 1 -12
16 -8 17 51 15 34 -1 66 -6 70 -12 5 -7 8 -7 8 1 0 16 84 11 106 -6 17 -14 18
-14 6 2 -13 16 -9 17 55 15 37 -2 74 -7 82 -11 9 -6 12 -5 7 2 -4 7 12 11 54
10 37 0 60 -5 60 -12 0 -7 3 -7 8 -1 11 16 64 18 73 3 5 -7 9 -8 9 -3 0 15 70
18 70 2 0 -7 3 -8 8 -2 11 16 64 18 73 3 6 -9 9 -9 9 -1 0 15 23 11 46 -7 17
-14 18 -14 6 2 -13 16 -9 17 55 15 37 -2 74 -7 82 -11 10 -7 12 -5 6 3 -11 19
65 11 90 -8 18 -15 19 -15 6 1 -12 16 -10 17 22 15 19 -2 44 -10 54 -18 16
-13 17 -12 5 3 -13 16 -9 17 55 15 37 -2 74 -7 82 -11 10 -7 12 -5 6 3 -11 19
65 11 90 -8 18 -15 19 -15 6 1 -12 16 -10 17 22 15 19 -2 44 -10 54 -18 16
-13 17 -12 5 3 -13 16 -9 17 55 15 37 -2 74 -7 82 -11 10 -7 12 -5 6 3 -11 19
65 11 90 -8 18 -15 19 -15 6 1 -12 16 -10 17 22 15 19 -2 44 -10 54 -18 16
-13 17 -12 5 3 -13 16 -9 17 55 15 37 -2 74 -7 82 -11 10 -7 12 -5 6 3 -11 19
65 11 90 -8 18 -15 19 -15 7 0 -10 14 -6 16 41 16 28 0 55 -5 59 -11 5 -6 8
-7 8 -1 0 15 70 18 70 2 0 -7 3 -8 8 -2 11 16 64 18 73 3 5 -7 9 -8 9 -3 0 15
70 18 70 2 0 -9 2 -9 8 1 9 13 89 11 112 -3 9 -6 11 -4 5 4 -11 19 65 11 90
-8 18 -15 19 -15 6 1 -12 16 -8 17 51 15 34 -1 66 -6 70 -12 5 -7 8 -7 8 1 0
16 84 11 106 -6 17 -14 18 -14 6 2 -13 16 -9 17 55 15 37 -2 74 -7 82 -11 9
-6 12 -5 7 2 -4 7 12 11 54 10 37 0 60 -5 60 -12 0 -7 3 -7 8 -1 11 16 64 18
73 3 5 -7 9 -8 9 -3 0 15 70 18 70 2 0 -7 3 -8 8 -2 11 16 64 18 73 3 6 -9 9
-9 9 -1 0 15 23 11 46 -7 17 -14 18 -13 6 2 -12 15 -4 16 95 16 59 0 124 2
143 6 22 3 37 1 42 -7 5 -8 8 -6 8 7 0 16 2 17 17 5 14 -12 16 -12 8 0 -6 11
-4 13 7 8 9 -3 21 0 27 6 8 8 11 7 11 -3 1 -12 3 -11 10 2 6 10 19 15 30 13
13 -3 18 0 14 7 -5 7 0 9 14 6 14 -4 20 -2 15 5 -4 7 0 8 13 3 10 -4 15 -4 11
0 -8 8 42 36 53 29 4 -3 11 2 14 11 4 9 9 14 12 11 3 -2 17 6 31 19 14 13 29
21 33 19 4 -3 11 2 14 11 3 8 10 12 16 9 5 -3 10 1 10 9 0 15 13 21 35 16 6
-1 7 1 3 5 -8 8 42 61 54 57 4 -1 7 4 6 10 -2 7 3 12 10 10 8 -1 10 2 7 8 -4
6 3 19 14 29 12 10 21 24 21 30 0 7 5 9 12 5 6 -4 8 -3 4 4 -3 6 0 16 7 24 7
7 24 37 37 66 13 28 28 52 33 52 6 0 8 2 5 5 -3 3 3 34 14 68 18 58 24 86 34
162 5 44 4 6502 -2 6555 -4 42 -6 54 -18 108 -28 127 -138 309 -242 401 -97
86 -247 166 -349 186 -22 5 -47 11 -55 14 -17 6 -6594 13 -6601 7z"/>
</g>
</svg>
